<mxfile host="app.diagrams.net" modified="2021-06-14T01:14:25.241Z" agent="5.0 (X11; Linux x86_64) AppleWebKit/537.36 (KHTML, like Gecko) Chrome/91.0.4472.101 Safari/537.36" etag="AAMapT2phHhLJiToDcWo" version="14.7.7" type="github">
  <diagram id="R2lEEEUBdFMjLlhIrx00" name="Page-1">
    <mxGraphModel dx="1350" dy="737" grid="1" gridSize="10" guides="1" tooltips="1" connect="1" arrows="1" fold="1" page="1" pageScale="1" pageWidth="850" pageHeight="1100" math="0" shadow="0" extFonts="Permanent Marker^https://fonts.googleapis.com/css?family=Permanent+Marker">
      <root>
        <mxCell id="0" />
        <mxCell id="1" parent="0" />
        <mxCell id="vgdq0jmsnZgpoVYV3Y3M-1" value="User" style="shape=table;startSize=30;container=1;collapsible=1;childLayout=tableLayout;fixedRows=1;rowLines=0;fontStyle=1;align=center;resizeLast=1;" vertex="1" parent="1">
          <mxGeometry x="310" y="60" width="180" height="160" as="geometry" />
        </mxCell>
        <mxCell id="vgdq0jmsnZgpoVYV3Y3M-2" value="" style="shape=partialRectangle;collapsible=0;dropTarget=0;pointerEvents=0;fillColor=none;top=0;left=0;bottom=1;right=0;points=[[0,0.5],[1,0.5]];portConstraint=eastwest;" vertex="1" parent="vgdq0jmsnZgpoVYV3Y3M-1">
          <mxGeometry y="30" width="180" height="30" as="geometry" />
        </mxCell>
        <mxCell id="vgdq0jmsnZgpoVYV3Y3M-3" value="PK" style="shape=partialRectangle;connectable=0;fillColor=none;top=0;left=0;bottom=0;right=0;fontStyle=1;overflow=hidden;" vertex="1" parent="vgdq0jmsnZgpoVYV3Y3M-2">
          <mxGeometry width="30" height="30" as="geometry" />
        </mxCell>
        <mxCell id="vgdq0jmsnZgpoVYV3Y3M-4" value="id" style="shape=partialRectangle;connectable=0;fillColor=none;top=0;left=0;bottom=0;right=0;align=left;spacingLeft=6;fontStyle=5;overflow=hidden;" vertex="1" parent="vgdq0jmsnZgpoVYV3Y3M-2">
          <mxGeometry x="30" width="150" height="30" as="geometry" />
        </mxCell>
        <mxCell id="vgdq0jmsnZgpoVYV3Y3M-5" value="" style="shape=partialRectangle;collapsible=0;dropTarget=0;pointerEvents=0;fillColor=none;top=0;left=0;bottom=0;right=0;points=[[0,0.5],[1,0.5]];portConstraint=eastwest;" vertex="1" parent="vgdq0jmsnZgpoVYV3Y3M-1">
          <mxGeometry y="60" width="180" height="30" as="geometry" />
        </mxCell>
        <mxCell id="vgdq0jmsnZgpoVYV3Y3M-6" value="" style="shape=partialRectangle;connectable=0;fillColor=none;top=0;left=0;bottom=0;right=0;editable=1;overflow=hidden;" vertex="1" parent="vgdq0jmsnZgpoVYV3Y3M-5">
          <mxGeometry width="30" height="30" as="geometry" />
        </mxCell>
        <mxCell id="vgdq0jmsnZgpoVYV3Y3M-7" value="username" style="shape=partialRectangle;connectable=0;fillColor=none;top=0;left=0;bottom=0;right=0;align=left;spacingLeft=6;overflow=hidden;" vertex="1" parent="vgdq0jmsnZgpoVYV3Y3M-5">
          <mxGeometry x="30" width="150" height="30" as="geometry" />
        </mxCell>
        <mxCell id="vgdq0jmsnZgpoVYV3Y3M-8" value="" style="shape=partialRectangle;collapsible=0;dropTarget=0;pointerEvents=0;fillColor=none;top=0;left=0;bottom=0;right=0;points=[[0,0.5],[1,0.5]];portConstraint=eastwest;" vertex="1" parent="vgdq0jmsnZgpoVYV3Y3M-1">
          <mxGeometry y="90" width="180" height="30" as="geometry" />
        </mxCell>
        <mxCell id="vgdq0jmsnZgpoVYV3Y3M-9" value="" style="shape=partialRectangle;connectable=0;fillColor=none;top=0;left=0;bottom=0;right=0;editable=1;overflow=hidden;" vertex="1" parent="vgdq0jmsnZgpoVYV3Y3M-8">
          <mxGeometry width="30" height="30" as="geometry" />
        </mxCell>
        <mxCell id="vgdq0jmsnZgpoVYV3Y3M-10" value="password" style="shape=partialRectangle;connectable=0;fillColor=none;top=0;left=0;bottom=0;right=0;align=left;spacingLeft=6;overflow=hidden;" vertex="1" parent="vgdq0jmsnZgpoVYV3Y3M-8">
          <mxGeometry x="30" width="150" height="30" as="geometry" />
        </mxCell>
        <mxCell id="vgdq0jmsnZgpoVYV3Y3M-11" value="" style="shape=partialRectangle;collapsible=0;dropTarget=0;pointerEvents=0;fillColor=none;top=0;left=0;bottom=0;right=0;points=[[0,0.5],[1,0.5]];portConstraint=eastwest;" vertex="1" parent="vgdq0jmsnZgpoVYV3Y3M-1">
          <mxGeometry y="120" width="180" height="30" as="geometry" />
        </mxCell>
        <mxCell id="vgdq0jmsnZgpoVYV3Y3M-12" value="" style="shape=partialRectangle;connectable=0;fillColor=none;top=0;left=0;bottom=0;right=0;editable=1;overflow=hidden;" vertex="1" parent="vgdq0jmsnZgpoVYV3Y3M-11">
          <mxGeometry width="30" height="30" as="geometry" />
        </mxCell>
        <mxCell id="vgdq0jmsnZgpoVYV3Y3M-13" value="email" style="shape=partialRectangle;connectable=0;fillColor=none;top=0;left=0;bottom=0;right=0;align=left;spacingLeft=6;overflow=hidden;" vertex="1" parent="vgdq0jmsnZgpoVYV3Y3M-11">
          <mxGeometry x="30" width="150" height="30" as="geometry" />
        </mxCell>
        <mxCell id="vgdq0jmsnZgpoVYV3Y3M-27" value="Vacancy" style="shape=table;startSize=30;container=1;collapsible=1;childLayout=tableLayout;fixedRows=1;rowLines=0;fontStyle=1;align=center;resizeLast=1;" vertex="1" parent="1">
          <mxGeometry x="190" y="730" width="180" height="190" as="geometry" />
        </mxCell>
        <mxCell id="vgdq0jmsnZgpoVYV3Y3M-28" value="" style="shape=partialRectangle;collapsible=0;dropTarget=0;pointerEvents=0;fillColor=none;top=0;left=0;bottom=1;right=0;points=[[0,0.5],[1,0.5]];portConstraint=eastwest;" vertex="1" parent="vgdq0jmsnZgpoVYV3Y3M-27">
          <mxGeometry y="30" width="180" height="30" as="geometry" />
        </mxCell>
        <mxCell id="vgdq0jmsnZgpoVYV3Y3M-29" value="PK" style="shape=partialRectangle;connectable=0;fillColor=none;top=0;left=0;bottom=0;right=0;fontStyle=1;overflow=hidden;" vertex="1" parent="vgdq0jmsnZgpoVYV3Y3M-28">
          <mxGeometry width="30" height="30" as="geometry" />
        </mxCell>
        <mxCell id="vgdq0jmsnZgpoVYV3Y3M-30" value="id" style="shape=partialRectangle;connectable=0;fillColor=none;top=0;left=0;bottom=0;right=0;align=left;spacingLeft=6;fontStyle=5;overflow=hidden;" vertex="1" parent="vgdq0jmsnZgpoVYV3Y3M-28">
          <mxGeometry x="30" width="150" height="30" as="geometry" />
        </mxCell>
        <mxCell id="vgdq0jmsnZgpoVYV3Y3M-31" value="" style="shape=partialRectangle;collapsible=0;dropTarget=0;pointerEvents=0;fillColor=none;top=0;left=0;bottom=0;right=0;points=[[0,0.5],[1,0.5]];portConstraint=eastwest;" vertex="1" parent="vgdq0jmsnZgpoVYV3Y3M-27">
          <mxGeometry y="60" width="180" height="30" as="geometry" />
        </mxCell>
        <mxCell id="vgdq0jmsnZgpoVYV3Y3M-32" value="FK" style="shape=partialRectangle;connectable=0;fillColor=none;top=0;left=0;bottom=0;right=0;editable=1;overflow=hidden;" vertex="1" parent="vgdq0jmsnZgpoVYV3Y3M-31">
          <mxGeometry width="30" height="30" as="geometry" />
        </mxCell>
        <mxCell id="vgdq0jmsnZgpoVYV3Y3M-33" value="company_id" style="shape=partialRectangle;connectable=0;fillColor=none;top=0;left=0;bottom=0;right=0;align=left;spacingLeft=6;overflow=hidden;" vertex="1" parent="vgdq0jmsnZgpoVYV3Y3M-31">
          <mxGeometry x="30" width="150" height="30" as="geometry" />
        </mxCell>
        <mxCell id="vgdq0jmsnZgpoVYV3Y3M-34" value="" style="shape=partialRectangle;collapsible=0;dropTarget=0;pointerEvents=0;fillColor=none;top=0;left=0;bottom=0;right=0;points=[[0,0.5],[1,0.5]];portConstraint=eastwest;" vertex="1" parent="vgdq0jmsnZgpoVYV3Y3M-27">
          <mxGeometry y="90" width="180" height="30" as="geometry" />
        </mxCell>
        <mxCell id="vgdq0jmsnZgpoVYV3Y3M-35" value="" style="shape=partialRectangle;connectable=0;fillColor=none;top=0;left=0;bottom=0;right=0;editable=1;overflow=hidden;" vertex="1" parent="vgdq0jmsnZgpoVYV3Y3M-34">
          <mxGeometry width="30" height="30" as="geometry" />
        </mxCell>
        <mxCell id="vgdq0jmsnZgpoVYV3Y3M-36" value="name    " style="shape=partialRectangle;connectable=0;fillColor=none;top=0;left=0;bottom=0;right=0;align=left;spacingLeft=6;overflow=hidden;" vertex="1" parent="vgdq0jmsnZgpoVYV3Y3M-34">
          <mxGeometry x="30" width="150" height="30" as="geometry" />
        </mxCell>
        <mxCell id="vgdq0jmsnZgpoVYV3Y3M-37" value="" style="shape=partialRectangle;collapsible=0;dropTarget=0;pointerEvents=0;fillColor=none;top=0;left=0;bottom=0;right=0;points=[[0,0.5],[1,0.5]];portConstraint=eastwest;" vertex="1" parent="vgdq0jmsnZgpoVYV3Y3M-27">
          <mxGeometry y="120" width="180" height="30" as="geometry" />
        </mxCell>
        <mxCell id="vgdq0jmsnZgpoVYV3Y3M-38" value="" style="shape=partialRectangle;connectable=0;fillColor=none;top=0;left=0;bottom=0;right=0;editable=1;overflow=hidden;" vertex="1" parent="vgdq0jmsnZgpoVYV3Y3M-37">
          <mxGeometry width="30" height="30" as="geometry" />
        </mxCell>
        <mxCell id="vgdq0jmsnZgpoVYV3Y3M-39" value="salary    " style="shape=partialRectangle;connectable=0;fillColor=none;top=0;left=0;bottom=0;right=0;align=left;spacingLeft=6;overflow=hidden;" vertex="1" parent="vgdq0jmsnZgpoVYV3Y3M-37">
          <mxGeometry x="30" width="150" height="30" as="geometry" />
        </mxCell>
        <mxCell id="vgdq0jmsnZgpoVYV3Y3M-40" value="" style="shape=partialRectangle;collapsible=0;dropTarget=0;pointerEvents=0;fillColor=none;top=0;left=0;bottom=0;right=0;points=[[0,0.5],[1,0.5]];portConstraint=eastwest;" vertex="1" parent="vgdq0jmsnZgpoVYV3Y3M-27">
          <mxGeometry y="150" width="180" height="30" as="geometry" />
        </mxCell>
        <mxCell id="vgdq0jmsnZgpoVYV3Y3M-41" value="" style="shape=partialRectangle;connectable=0;fillColor=none;top=0;left=0;bottom=0;right=0;editable=1;overflow=hidden;" vertex="1" parent="vgdq0jmsnZgpoVYV3Y3M-40">
          <mxGeometry width="30" height="30" as="geometry" />
        </mxCell>
        <mxCell id="vgdq0jmsnZgpoVYV3Y3M-42" value="requirements" style="shape=partialRectangle;connectable=0;fillColor=none;top=0;left=0;bottom=0;right=0;align=left;spacingLeft=6;overflow=hidden;" vertex="1" parent="vgdq0jmsnZgpoVYV3Y3M-40">
          <mxGeometry x="30" width="150" height="30" as="geometry" />
        </mxCell>
        <mxCell id="vgdq0jmsnZgpoVYV3Y3M-43" value="Favorite" style="shape=table;startSize=30;container=1;collapsible=1;childLayout=tableLayout;fixedRows=1;rowLines=0;fontStyle=1;align=center;resizeLast=1;" vertex="1" parent="1">
          <mxGeometry x="460" y="900" width="180" height="130" as="geometry" />
        </mxCell>
        <mxCell id="vgdq0jmsnZgpoVYV3Y3M-44" value="" style="shape=partialRectangle;collapsible=0;dropTarget=0;pointerEvents=0;fillColor=none;top=0;left=0;bottom=1;right=0;points=[[0,0.5],[1,0.5]];portConstraint=eastwest;" vertex="1" parent="vgdq0jmsnZgpoVYV3Y3M-43">
          <mxGeometry y="30" width="180" height="30" as="geometry" />
        </mxCell>
        <mxCell id="vgdq0jmsnZgpoVYV3Y3M-45" value="PK" style="shape=partialRectangle;connectable=0;fillColor=none;top=0;left=0;bottom=0;right=0;fontStyle=1;overflow=hidden;" vertex="1" parent="vgdq0jmsnZgpoVYV3Y3M-44">
          <mxGeometry width="30" height="30" as="geometry" />
        </mxCell>
        <mxCell id="vgdq0jmsnZgpoVYV3Y3M-46" value="id" style="shape=partialRectangle;connectable=0;fillColor=none;top=0;left=0;bottom=0;right=0;align=left;spacingLeft=6;fontStyle=5;overflow=hidden;" vertex="1" parent="vgdq0jmsnZgpoVYV3Y3M-44">
          <mxGeometry x="30" width="150" height="30" as="geometry" />
        </mxCell>
        <mxCell id="vgdq0jmsnZgpoVYV3Y3M-47" value="" style="shape=partialRectangle;collapsible=0;dropTarget=0;pointerEvents=0;fillColor=none;top=0;left=0;bottom=0;right=0;points=[[0,0.5],[1,0.5]];portConstraint=eastwest;" vertex="1" parent="vgdq0jmsnZgpoVYV3Y3M-43">
          <mxGeometry y="60" width="180" height="30" as="geometry" />
        </mxCell>
        <mxCell id="vgdq0jmsnZgpoVYV3Y3M-48" value="FK" style="shape=partialRectangle;connectable=0;fillColor=none;top=0;left=0;bottom=0;right=0;editable=1;overflow=hidden;" vertex="1" parent="vgdq0jmsnZgpoVYV3Y3M-47">
          <mxGeometry width="30" height="30" as="geometry" />
        </mxCell>
        <mxCell id="vgdq0jmsnZgpoVYV3Y3M-49" value="vacancy_id" style="shape=partialRectangle;connectable=0;fillColor=none;top=0;left=0;bottom=0;right=0;align=left;spacingLeft=6;overflow=hidden;" vertex="1" parent="vgdq0jmsnZgpoVYV3Y3M-47">
          <mxGeometry x="30" width="150" height="30" as="geometry" />
        </mxCell>
        <mxCell id="vgdq0jmsnZgpoVYV3Y3M-50" value="" style="shape=partialRectangle;collapsible=0;dropTarget=0;pointerEvents=0;fillColor=none;top=0;left=0;bottom=0;right=0;points=[[0,0.5],[1,0.5]];portConstraint=eastwest;" vertex="1" parent="vgdq0jmsnZgpoVYV3Y3M-43">
          <mxGeometry y="90" width="180" height="30" as="geometry" />
        </mxCell>
        <mxCell id="vgdq0jmsnZgpoVYV3Y3M-51" value="FK" style="shape=partialRectangle;connectable=0;fillColor=none;top=0;left=0;bottom=0;right=0;editable=1;overflow=hidden;" vertex="1" parent="vgdq0jmsnZgpoVYV3Y3M-50">
          <mxGeometry width="30" height="30" as="geometry" />
        </mxCell>
        <mxCell id="vgdq0jmsnZgpoVYV3Y3M-52" value="employee_id" style="shape=partialRectangle;connectable=0;fillColor=none;top=0;left=0;bottom=0;right=0;align=left;spacingLeft=6;overflow=hidden;" vertex="1" parent="vgdq0jmsnZgpoVYV3Y3M-50">
          <mxGeometry x="30" width="150" height="30" as="geometry" />
        </mxCell>
        <mxCell id="vgdq0jmsnZgpoVYV3Y3M-56" value="EmployeeSkill" style="shape=table;startSize=30;container=1;collapsible=1;childLayout=tableLayout;fixedRows=1;rowLines=0;fontStyle=1;align=center;resizeLast=1;" vertex="1" parent="1">
          <mxGeometry x="320" y="430" width="180" height="160" as="geometry" />
        </mxCell>
        <mxCell id="vgdq0jmsnZgpoVYV3Y3M-57" value="" style="shape=partialRectangle;collapsible=0;dropTarget=0;pointerEvents=0;fillColor=none;top=0;left=0;bottom=1;right=0;points=[[0,0.5],[1,0.5]];portConstraint=eastwest;" vertex="1" parent="vgdq0jmsnZgpoVYV3Y3M-56">
          <mxGeometry y="30" width="180" height="30" as="geometry" />
        </mxCell>
        <mxCell id="vgdq0jmsnZgpoVYV3Y3M-58" value="PK" style="shape=partialRectangle;connectable=0;fillColor=none;top=0;left=0;bottom=0;right=0;fontStyle=1;overflow=hidden;" vertex="1" parent="vgdq0jmsnZgpoVYV3Y3M-57">
          <mxGeometry width="30" height="30" as="geometry" />
        </mxCell>
        <mxCell id="vgdq0jmsnZgpoVYV3Y3M-59" value="id" style="shape=partialRectangle;connectable=0;fillColor=none;top=0;left=0;bottom=0;right=0;align=left;spacingLeft=6;fontStyle=5;overflow=hidden;" vertex="1" parent="vgdq0jmsnZgpoVYV3Y3M-57">
          <mxGeometry x="30" width="150" height="30" as="geometry" />
        </mxCell>
        <mxCell id="vgdq0jmsnZgpoVYV3Y3M-60" value="" style="shape=partialRectangle;collapsible=0;dropTarget=0;pointerEvents=0;fillColor=none;top=0;left=0;bottom=0;right=0;points=[[0,0.5],[1,0.5]];portConstraint=eastwest;" vertex="1" parent="vgdq0jmsnZgpoVYV3Y3M-56">
          <mxGeometry y="60" width="180" height="30" as="geometry" />
        </mxCell>
        <mxCell id="vgdq0jmsnZgpoVYV3Y3M-61" value="" style="shape=partialRectangle;connectable=0;fillColor=none;top=0;left=0;bottom=0;right=0;editable=1;overflow=hidden;" vertex="1" parent="vgdq0jmsnZgpoVYV3Y3M-60">
          <mxGeometry width="30" height="30" as="geometry" />
        </mxCell>
        <mxCell id="vgdq0jmsnZgpoVYV3Y3M-62" value="skill_name" style="shape=partialRectangle;connectable=0;fillColor=none;top=0;left=0;bottom=0;right=0;align=left;spacingLeft=6;overflow=hidden;" vertex="1" parent="vgdq0jmsnZgpoVYV3Y3M-60">
          <mxGeometry x="30" width="150" height="30" as="geometry" />
        </mxCell>
        <mxCell id="vgdq0jmsnZgpoVYV3Y3M-63" value="" style="shape=partialRectangle;collapsible=0;dropTarget=0;pointerEvents=0;fillColor=none;top=0;left=0;bottom=0;right=0;points=[[0,0.5],[1,0.5]];portConstraint=eastwest;" vertex="1" parent="vgdq0jmsnZgpoVYV3Y3M-56">
          <mxGeometry y="90" width="180" height="30" as="geometry" />
        </mxCell>
        <mxCell id="vgdq0jmsnZgpoVYV3Y3M-64" value="" style="shape=partialRectangle;connectable=0;fillColor=none;top=0;left=0;bottom=0;right=0;editable=1;overflow=hidden;" vertex="1" parent="vgdq0jmsnZgpoVYV3Y3M-63">
          <mxGeometry width="30" height="30" as="geometry" />
        </mxCell>
        <mxCell id="vgdq0jmsnZgpoVYV3Y3M-65" value="skill_progress" style="shape=partialRectangle;connectable=0;fillColor=none;top=0;left=0;bottom=0;right=0;align=left;spacingLeft=6;overflow=hidden;" vertex="1" parent="vgdq0jmsnZgpoVYV3Y3M-63">
          <mxGeometry x="30" width="150" height="30" as="geometry" />
        </mxCell>
        <mxCell id="vgdq0jmsnZgpoVYV3Y3M-66" value="" style="shape=partialRectangle;collapsible=0;dropTarget=0;pointerEvents=0;fillColor=none;top=0;left=0;bottom=0;right=0;points=[[0,0.5],[1,0.5]];portConstraint=eastwest;" vertex="1" parent="vgdq0jmsnZgpoVYV3Y3M-56">
          <mxGeometry y="120" width="180" height="30" as="geometry" />
        </mxCell>
        <mxCell id="vgdq0jmsnZgpoVYV3Y3M-67" value="FK" style="shape=partialRectangle;connectable=0;fillColor=none;top=0;left=0;bottom=0;right=0;editable=1;overflow=hidden;" vertex="1" parent="vgdq0jmsnZgpoVYV3Y3M-66">
          <mxGeometry width="30" height="30" as="geometry" />
        </mxCell>
        <mxCell id="vgdq0jmsnZgpoVYV3Y3M-68" value="employee_id" style="shape=partialRectangle;connectable=0;fillColor=none;top=0;left=0;bottom=0;right=0;align=left;spacingLeft=6;overflow=hidden;" vertex="1" parent="vgdq0jmsnZgpoVYV3Y3M-66">
          <mxGeometry x="30" width="150" height="30" as="geometry" />
        </mxCell>
        <mxCell id="vgdq0jmsnZgpoVYV3Y3M-69" value="Employee" style="shape=table;startSize=30;container=1;collapsible=1;childLayout=tableLayout;fixedRows=1;rowLines=0;fontStyle=1;align=center;resizeLast=1;" vertex="1" parent="1">
          <mxGeometry x="610" y="310" width="180" height="430" as="geometry" />
        </mxCell>
        <mxCell id="vgdq0jmsnZgpoVYV3Y3M-70" value="" style="shape=partialRectangle;collapsible=0;dropTarget=0;pointerEvents=0;fillColor=none;top=0;left=0;bottom=1;right=0;points=[[0,0.5],[1,0.5]];portConstraint=eastwest;" vertex="1" parent="vgdq0jmsnZgpoVYV3Y3M-69">
          <mxGeometry y="30" width="180" height="30" as="geometry" />
        </mxCell>
        <mxCell id="vgdq0jmsnZgpoVYV3Y3M-71" value="PK" style="shape=partialRectangle;connectable=0;fillColor=none;top=0;left=0;bottom=0;right=0;fontStyle=1;overflow=hidden;" vertex="1" parent="vgdq0jmsnZgpoVYV3Y3M-70">
          <mxGeometry width="30" height="30" as="geometry" />
        </mxCell>
        <mxCell id="vgdq0jmsnZgpoVYV3Y3M-72" value="id" style="shape=partialRectangle;connectable=0;fillColor=none;top=0;left=0;bottom=0;right=0;align=left;spacingLeft=6;fontStyle=5;overflow=hidden;" vertex="1" parent="vgdq0jmsnZgpoVYV3Y3M-70">
          <mxGeometry x="30" width="150" height="30" as="geometry" />
        </mxCell>
        <mxCell id="vgdq0jmsnZgpoVYV3Y3M-73" value="" style="shape=partialRectangle;collapsible=0;dropTarget=0;pointerEvents=0;fillColor=none;top=0;left=0;bottom=0;right=0;points=[[0,0.5],[1,0.5]];portConstraint=eastwest;" vertex="1" parent="vgdq0jmsnZgpoVYV3Y3M-69">
          <mxGeometry y="60" width="180" height="30" as="geometry" />
        </mxCell>
        <mxCell id="vgdq0jmsnZgpoVYV3Y3M-74" value="FK" style="shape=partialRectangle;connectable=0;fillColor=none;top=0;left=0;bottom=0;right=0;editable=1;overflow=hidden;" vertex="1" parent="vgdq0jmsnZgpoVYV3Y3M-73">
          <mxGeometry width="30" height="30" as="geometry" />
        </mxCell>
        <mxCell id="vgdq0jmsnZgpoVYV3Y3M-75" value="user_id" style="shape=partialRectangle;connectable=0;fillColor=none;top=0;left=0;bottom=0;right=0;align=left;spacingLeft=6;overflow=hidden;" vertex="1" parent="vgdq0jmsnZgpoVYV3Y3M-73">
          <mxGeometry x="30" width="150" height="30" as="geometry" />
        </mxCell>
        <mxCell id="vgdq0jmsnZgpoVYV3Y3M-76" value="" style="shape=partialRectangle;collapsible=0;dropTarget=0;pointerEvents=0;fillColor=none;top=0;left=0;bottom=0;right=0;points=[[0,0.5],[1,0.5]];portConstraint=eastwest;" vertex="1" parent="vgdq0jmsnZgpoVYV3Y3M-69">
          <mxGeometry y="90" width="180" height="30" as="geometry" />
        </mxCell>
        <mxCell id="vgdq0jmsnZgpoVYV3Y3M-77" value="" style="shape=partialRectangle;connectable=0;fillColor=none;top=0;left=0;bottom=0;right=0;editable=1;overflow=hidden;" vertex="1" parent="vgdq0jmsnZgpoVYV3Y3M-76">
          <mxGeometry width="30" height="30" as="geometry" />
        </mxCell>
        <mxCell id="vgdq0jmsnZgpoVYV3Y3M-78" value="first_name" style="shape=partialRectangle;connectable=0;fillColor=none;top=0;left=0;bottom=0;right=0;align=left;spacingLeft=6;overflow=hidden;" vertex="1" parent="vgdq0jmsnZgpoVYV3Y3M-76">
          <mxGeometry x="30" width="150" height="30" as="geometry" />
        </mxCell>
        <mxCell id="vgdq0jmsnZgpoVYV3Y3M-79" value="" style="shape=partialRectangle;collapsible=0;dropTarget=0;pointerEvents=0;fillColor=none;top=0;left=0;bottom=0;right=0;points=[[0,0.5],[1,0.5]];portConstraint=eastwest;" vertex="1" parent="vgdq0jmsnZgpoVYV3Y3M-69">
          <mxGeometry y="120" width="180" height="30" as="geometry" />
        </mxCell>
        <mxCell id="vgdq0jmsnZgpoVYV3Y3M-80" value="" style="shape=partialRectangle;connectable=0;fillColor=none;top=0;left=0;bottom=0;right=0;editable=1;overflow=hidden;" vertex="1" parent="vgdq0jmsnZgpoVYV3Y3M-79">
          <mxGeometry width="30" height="30" as="geometry" />
        </mxCell>
        <mxCell id="vgdq0jmsnZgpoVYV3Y3M-81" value="last_name" style="shape=partialRectangle;connectable=0;fillColor=none;top=0;left=0;bottom=0;right=0;align=left;spacingLeft=6;overflow=hidden;" vertex="1" parent="vgdq0jmsnZgpoVYV3Y3M-79">
          <mxGeometry x="30" width="150" height="30" as="geometry" />
        </mxCell>
        <mxCell id="vgdq0jmsnZgpoVYV3Y3M-82" value="" style="shape=partialRectangle;collapsible=0;dropTarget=0;pointerEvents=0;fillColor=none;top=0;left=0;bottom=0;right=0;points=[[0,0.5],[1,0.5]];portConstraint=eastwest;" vertex="1" parent="vgdq0jmsnZgpoVYV3Y3M-69">
          <mxGeometry y="150" width="180" height="30" as="geometry" />
        </mxCell>
        <mxCell id="vgdq0jmsnZgpoVYV3Y3M-83" value="" style="shape=partialRectangle;connectable=0;fillColor=none;top=0;left=0;bottom=0;right=0;editable=1;overflow=hidden;" vertex="1" parent="vgdq0jmsnZgpoVYV3Y3M-82">
          <mxGeometry width="30" height="30" as="geometry" />
        </mxCell>
        <mxCell id="vgdq0jmsnZgpoVYV3Y3M-84" value="education" style="shape=partialRectangle;connectable=0;fillColor=none;top=0;left=0;bottom=0;right=0;align=left;spacingLeft=6;overflow=hidden;" vertex="1" parent="vgdq0jmsnZgpoVYV3Y3M-82">
          <mxGeometry x="30" width="150" height="30" as="geometry" />
        </mxCell>
        <mxCell id="vgdq0jmsnZgpoVYV3Y3M-85" value="" style="shape=partialRectangle;collapsible=0;dropTarget=0;pointerEvents=0;fillColor=none;top=0;left=0;bottom=0;right=0;points=[[0,0.5],[1,0.5]];portConstraint=eastwest;" vertex="1" parent="vgdq0jmsnZgpoVYV3Y3M-69">
          <mxGeometry y="180" width="180" height="30" as="geometry" />
        </mxCell>
        <mxCell id="vgdq0jmsnZgpoVYV3Y3M-86" value="" style="shape=partialRectangle;connectable=0;fillColor=none;top=0;left=0;bottom=0;right=0;editable=1;overflow=hidden;" vertex="1" parent="vgdq0jmsnZgpoVYV3Y3M-85">
          <mxGeometry width="30" height="30" as="geometry" />
        </mxCell>
        <mxCell id="vgdq0jmsnZgpoVYV3Y3M-87" value="gender" style="shape=partialRectangle;connectable=0;fillColor=none;top=0;left=0;bottom=0;right=0;align=left;spacingLeft=6;overflow=hidden;" vertex="1" parent="vgdq0jmsnZgpoVYV3Y3M-85">
          <mxGeometry x="30" width="150" height="30" as="geometry" />
        </mxCell>
        <mxCell id="vgdq0jmsnZgpoVYV3Y3M-88" value="" style="shape=partialRectangle;collapsible=0;dropTarget=0;pointerEvents=0;fillColor=none;top=0;left=0;bottom=0;right=0;points=[[0,0.5],[1,0.5]];portConstraint=eastwest;" vertex="1" parent="vgdq0jmsnZgpoVYV3Y3M-69">
          <mxGeometry y="210" width="180" height="30" as="geometry" />
        </mxCell>
        <mxCell id="vgdq0jmsnZgpoVYV3Y3M-89" value="" style="shape=partialRectangle;connectable=0;fillColor=none;top=0;left=0;bottom=0;right=0;editable=1;overflow=hidden;" vertex="1" parent="vgdq0jmsnZgpoVYV3Y3M-88">
          <mxGeometry width="30" height="30" as="geometry" />
        </mxCell>
        <mxCell id="vgdq0jmsnZgpoVYV3Y3M-90" value="age" style="shape=partialRectangle;connectable=0;fillColor=none;top=0;left=0;bottom=0;right=0;align=left;spacingLeft=6;overflow=hidden;" vertex="1" parent="vgdq0jmsnZgpoVYV3Y3M-88">
          <mxGeometry x="30" width="150" height="30" as="geometry" />
        </mxCell>
        <mxCell id="vgdq0jmsnZgpoVYV3Y3M-91" value="" style="shape=partialRectangle;collapsible=0;dropTarget=0;pointerEvents=0;fillColor=none;top=0;left=0;bottom=0;right=0;points=[[0,0.5],[1,0.5]];portConstraint=eastwest;" vertex="1" parent="vgdq0jmsnZgpoVYV3Y3M-69">
          <mxGeometry y="240" width="180" height="30" as="geometry" />
        </mxCell>
        <mxCell id="vgdq0jmsnZgpoVYV3Y3M-92" value="" style="shape=partialRectangle;connectable=0;fillColor=none;top=0;left=0;bottom=0;right=0;editable=1;overflow=hidden;" vertex="1" parent="vgdq0jmsnZgpoVYV3Y3M-91">
          <mxGeometry width="30" height="30" as="geometry" />
        </mxCell>
        <mxCell id="vgdq0jmsnZgpoVYV3Y3M-93" value="citizenship" style="shape=partialRectangle;connectable=0;fillColor=none;top=0;left=0;bottom=0;right=0;align=left;spacingLeft=6;overflow=hidden;" vertex="1" parent="vgdq0jmsnZgpoVYV3Y3M-91">
          <mxGeometry x="30" width="150" height="30" as="geometry" />
        </mxCell>
        <mxCell id="vgdq0jmsnZgpoVYV3Y3M-94" value="" style="shape=partialRectangle;collapsible=0;dropTarget=0;pointerEvents=0;fillColor=none;top=0;left=0;bottom=0;right=0;points=[[0,0.5],[1,0.5]];portConstraint=eastwest;" vertex="1" parent="vgdq0jmsnZgpoVYV3Y3M-69">
          <mxGeometry y="270" width="180" height="30" as="geometry" />
        </mxCell>
        <mxCell id="vgdq0jmsnZgpoVYV3Y3M-95" value="" style="shape=partialRectangle;connectable=0;fillColor=none;top=0;left=0;bottom=0;right=0;editable=1;overflow=hidden;" vertex="1" parent="vgdq0jmsnZgpoVYV3Y3M-94">
          <mxGeometry width="30" height="30" as="geometry" />
        </mxCell>
        <mxCell id="vgdq0jmsnZgpoVYV3Y3M-96" value="position" style="shape=partialRectangle;connectable=0;fillColor=none;top=0;left=0;bottom=0;right=0;align=left;spacingLeft=6;overflow=hidden;" vertex="1" parent="vgdq0jmsnZgpoVYV3Y3M-94">
          <mxGeometry x="30" width="150" height="30" as="geometry" />
        </mxCell>
        <mxCell id="vgdq0jmsnZgpoVYV3Y3M-97" value="" style="shape=partialRectangle;collapsible=0;dropTarget=0;pointerEvents=0;fillColor=none;top=0;left=0;bottom=0;right=0;points=[[0,0.5],[1,0.5]];portConstraint=eastwest;" vertex="1" parent="vgdq0jmsnZgpoVYV3Y3M-69">
          <mxGeometry y="300" width="180" height="30" as="geometry" />
        </mxCell>
        <mxCell id="vgdq0jmsnZgpoVYV3Y3M-98" value="" style="shape=partialRectangle;connectable=0;fillColor=none;top=0;left=0;bottom=0;right=0;editable=1;overflow=hidden;" vertex="1" parent="vgdq0jmsnZgpoVYV3Y3M-97">
          <mxGeometry width="30" height="30" as="geometry" />
        </mxCell>
        <mxCell id="vgdq0jmsnZgpoVYV3Y3M-99" value="web_site" style="shape=partialRectangle;connectable=0;fillColor=none;top=0;left=0;bottom=0;right=0;align=left;spacingLeft=6;overflow=hidden;" vertex="1" parent="vgdq0jmsnZgpoVYV3Y3M-97">
          <mxGeometry x="30" width="150" height="30" as="geometry" />
        </mxCell>
        <mxCell id="vgdq0jmsnZgpoVYV3Y3M-100" value="" style="shape=partialRectangle;collapsible=0;dropTarget=0;pointerEvents=0;fillColor=none;top=0;left=0;bottom=0;right=0;points=[[0,0.5],[1,0.5]];portConstraint=eastwest;" vertex="1" parent="vgdq0jmsnZgpoVYV3Y3M-69">
          <mxGeometry y="330" width="180" height="30" as="geometry" />
        </mxCell>
        <mxCell id="vgdq0jmsnZgpoVYV3Y3M-101" value="" style="shape=partialRectangle;connectable=0;fillColor=none;top=0;left=0;bottom=0;right=0;editable=1;overflow=hidden;" vertex="1" parent="vgdq0jmsnZgpoVYV3Y3M-100">
          <mxGeometry width="30" height="30" as="geometry" />
        </mxCell>
        <mxCell id="vgdq0jmsnZgpoVYV3Y3M-102" value="github" style="shape=partialRectangle;connectable=0;fillColor=none;top=0;left=0;bottom=0;right=0;align=left;spacingLeft=6;overflow=hidden;" vertex="1" parent="vgdq0jmsnZgpoVYV3Y3M-100">
          <mxGeometry x="30" width="150" height="30" as="geometry" />
        </mxCell>
        <mxCell id="vgdq0jmsnZgpoVYV3Y3M-103" value="" style="shape=partialRectangle;collapsible=0;dropTarget=0;pointerEvents=0;fillColor=none;top=0;left=0;bottom=0;right=0;points=[[0,0.5],[1,0.5]];portConstraint=eastwest;" vertex="1" parent="vgdq0jmsnZgpoVYV3Y3M-69">
          <mxGeometry y="360" width="180" height="30" as="geometry" />
        </mxCell>
        <mxCell id="vgdq0jmsnZgpoVYV3Y3M-104" value="" style="shape=partialRectangle;connectable=0;fillColor=none;top=0;left=0;bottom=0;right=0;editable=1;overflow=hidden;" vertex="1" parent="vgdq0jmsnZgpoVYV3Y3M-103">
          <mxGeometry width="30" height="30" as="geometry" />
        </mxCell>
        <mxCell id="vgdq0jmsnZgpoVYV3Y3M-105" value="facebook" style="shape=partialRectangle;connectable=0;fillColor=none;top=0;left=0;bottom=0;right=0;align=left;spacingLeft=6;overflow=hidden;" vertex="1" parent="vgdq0jmsnZgpoVYV3Y3M-103">
          <mxGeometry x="30" width="150" height="30" as="geometry" />
        </mxCell>
        <mxCell id="vgdq0jmsnZgpoVYV3Y3M-106" value="" style="shape=partialRectangle;collapsible=0;dropTarget=0;pointerEvents=0;fillColor=none;top=0;left=0;bottom=0;right=0;points=[[0,0.5],[1,0.5]];portConstraint=eastwest;" vertex="1" parent="vgdq0jmsnZgpoVYV3Y3M-69">
          <mxGeometry y="390" width="180" height="30" as="geometry" />
        </mxCell>
        <mxCell id="vgdq0jmsnZgpoVYV3Y3M-107" value="" style="shape=partialRectangle;connectable=0;fillColor=none;top=0;left=0;bottom=0;right=0;editable=1;overflow=hidden;" vertex="1" parent="vgdq0jmsnZgpoVYV3Y3M-106">
          <mxGeometry width="30" height="30" as="geometry" />
        </mxCell>
        <mxCell id="vgdq0jmsnZgpoVYV3Y3M-108" value="about" style="shape=partialRectangle;connectable=0;fillColor=none;top=0;left=0;bottom=0;right=0;align=left;spacingLeft=6;overflow=hidden;" vertex="1" parent="vgdq0jmsnZgpoVYV3Y3M-106">
          <mxGeometry x="30" width="150" height="30" as="geometry" />
        </mxCell>
        <mxCell id="vgdq0jmsnZgpoVYV3Y3M-109" value="Company" style="shape=table;startSize=30;container=1;collapsible=1;childLayout=tableLayout;fixedRows=1;rowLines=0;fontStyle=1;align=center;resizeLast=1;" vertex="1" parent="1">
          <mxGeometry x="40" y="210" width="180" height="190" as="geometry" />
        </mxCell>
        <mxCell id="vgdq0jmsnZgpoVYV3Y3M-110" value="" style="shape=partialRectangle;collapsible=0;dropTarget=0;pointerEvents=0;fillColor=none;top=0;left=0;bottom=1;right=0;points=[[0,0.5],[1,0.5]];portConstraint=eastwest;" vertex="1" parent="vgdq0jmsnZgpoVYV3Y3M-109">
          <mxGeometry y="30" width="180" height="30" as="geometry" />
        </mxCell>
        <mxCell id="vgdq0jmsnZgpoVYV3Y3M-111" value="PK" style="shape=partialRectangle;connectable=0;fillColor=none;top=0;left=0;bottom=0;right=0;fontStyle=1;overflow=hidden;" vertex="1" parent="vgdq0jmsnZgpoVYV3Y3M-110">
          <mxGeometry width="30" height="30" as="geometry" />
        </mxCell>
        <mxCell id="vgdq0jmsnZgpoVYV3Y3M-112" value="id" style="shape=partialRectangle;connectable=0;fillColor=none;top=0;left=0;bottom=0;right=0;align=left;spacingLeft=6;fontStyle=5;overflow=hidden;" vertex="1" parent="vgdq0jmsnZgpoVYV3Y3M-110">
          <mxGeometry x="30" width="150" height="30" as="geometry" />
        </mxCell>
        <mxCell id="vgdq0jmsnZgpoVYV3Y3M-113" value="" style="shape=partialRectangle;collapsible=0;dropTarget=0;pointerEvents=0;fillColor=none;top=0;left=0;bottom=0;right=0;points=[[0,0.5],[1,0.5]];portConstraint=eastwest;" vertex="1" parent="vgdq0jmsnZgpoVYV3Y3M-109">
          <mxGeometry y="60" width="180" height="30" as="geometry" />
        </mxCell>
        <mxCell id="vgdq0jmsnZgpoVYV3Y3M-114" value="FK" style="shape=partialRectangle;connectable=0;fillColor=none;top=0;left=0;bottom=0;right=0;editable=1;overflow=hidden;" vertex="1" parent="vgdq0jmsnZgpoVYV3Y3M-113">
          <mxGeometry width="30" height="30" as="geometry" />
        </mxCell>
        <mxCell id="vgdq0jmsnZgpoVYV3Y3M-115" value="user_id" style="shape=partialRectangle;connectable=0;fillColor=none;top=0;left=0;bottom=0;right=0;align=left;spacingLeft=6;overflow=hidden;" vertex="1" parent="vgdq0jmsnZgpoVYV3Y3M-113">
          <mxGeometry x="30" width="150" height="30" as="geometry" />
        </mxCell>
        <mxCell id="vgdq0jmsnZgpoVYV3Y3M-116" value="" style="shape=partialRectangle;collapsible=0;dropTarget=0;pointerEvents=0;fillColor=none;top=0;left=0;bottom=0;right=0;points=[[0,0.5],[1,0.5]];portConstraint=eastwest;" vertex="1" parent="vgdq0jmsnZgpoVYV3Y3M-109">
          <mxGeometry y="90" width="180" height="30" as="geometry" />
        </mxCell>
        <mxCell id="vgdq0jmsnZgpoVYV3Y3M-117" value="" style="shape=partialRectangle;connectable=0;fillColor=none;top=0;left=0;bottom=0;right=0;editable=1;overflow=hidden;" vertex="1" parent="vgdq0jmsnZgpoVYV3Y3M-116">
          <mxGeometry width="30" height="30" as="geometry" />
        </mxCell>
        <mxCell id="vgdq0jmsnZgpoVYV3Y3M-118" value="name" style="shape=partialRectangle;connectable=0;fillColor=none;top=0;left=0;bottom=0;right=0;align=left;spacingLeft=6;overflow=hidden;" vertex="1" parent="vgdq0jmsnZgpoVYV3Y3M-116">
          <mxGeometry x="30" width="150" height="30" as="geometry" />
        </mxCell>
        <mxCell id="vgdq0jmsnZgpoVYV3Y3M-119" value="" style="shape=partialRectangle;collapsible=0;dropTarget=0;pointerEvents=0;fillColor=none;top=0;left=0;bottom=0;right=0;points=[[0,0.5],[1,0.5]];portConstraint=eastwest;" vertex="1" parent="vgdq0jmsnZgpoVYV3Y3M-109">
          <mxGeometry y="120" width="180" height="30" as="geometry" />
        </mxCell>
        <mxCell id="vgdq0jmsnZgpoVYV3Y3M-120" value="" style="shape=partialRectangle;connectable=0;fillColor=none;top=0;left=0;bottom=0;right=0;editable=1;overflow=hidden;" vertex="1" parent="vgdq0jmsnZgpoVYV3Y3M-119">
          <mxGeometry width="30" height="30" as="geometry" />
        </mxCell>
        <mxCell id="vgdq0jmsnZgpoVYV3Y3M-121" value="location" style="shape=partialRectangle;connectable=0;fillColor=none;top=0;left=0;bottom=0;right=0;align=left;spacingLeft=6;overflow=hidden;" vertex="1" parent="vgdq0jmsnZgpoVYV3Y3M-119">
          <mxGeometry x="30" width="150" height="30" as="geometry" />
        </mxCell>
        <mxCell id="vgdq0jmsnZgpoVYV3Y3M-122" value="" style="shape=partialRectangle;collapsible=0;dropTarget=0;pointerEvents=0;fillColor=none;top=0;left=0;bottom=0;right=0;points=[[0,0.5],[1,0.5]];portConstraint=eastwest;" vertex="1" parent="vgdq0jmsnZgpoVYV3Y3M-109">
          <mxGeometry y="150" width="180" height="30" as="geometry" />
        </mxCell>
        <mxCell id="vgdq0jmsnZgpoVYV3Y3M-123" value="" style="shape=partialRectangle;connectable=0;fillColor=none;top=0;left=0;bottom=0;right=0;editable=1;overflow=hidden;" vertex="1" parent="vgdq0jmsnZgpoVYV3Y3M-122">
          <mxGeometry width="30" height="30" as="geometry" />
        </mxCell>
        <mxCell id="vgdq0jmsnZgpoVYV3Y3M-124" value="number_of_employees" style="shape=partialRectangle;connectable=0;fillColor=none;top=0;left=0;bottom=0;right=0;align=left;spacingLeft=6;overflow=hidden;" vertex="1" parent="vgdq0jmsnZgpoVYV3Y3M-122">
          <mxGeometry x="30" width="150" height="30" as="geometry" />
        </mxCell>
        <mxCell id="vgdq0jmsnZgpoVYV3Y3M-125" value="" style="edgeStyle=entityRelationEdgeStyle;fontSize=12;html=1;endArrow=ERmandOne;startArrow=ERmandOne;exitX=1;exitY=0.5;exitDx=0;exitDy=0;entryX=-0.011;entryY=0.094;entryDx=0;entryDy=0;entryPerimeter=0;" edge="1" parent="1" source="vgdq0jmsnZgpoVYV3Y3M-113" target="vgdq0jmsnZgpoVYV3Y3M-1">
          <mxGeometry width="100" height="100" relative="1" as="geometry">
            <mxPoint x="370" y="480" as="sourcePoint" />
            <mxPoint x="470" y="380" as="targetPoint" />
          </mxGeometry>
        </mxCell>
        <mxCell id="vgdq0jmsnZgpoVYV3Y3M-126" value="" style="edgeStyle=entityRelationEdgeStyle;fontSize=12;html=1;endArrow=ERmandOne;startArrow=ERmandOne;entryX=0;entryY=0.5;entryDx=0;entryDy=0;exitX=0.994;exitY=0.106;exitDx=0;exitDy=0;exitPerimeter=0;" edge="1" parent="1" source="vgdq0jmsnZgpoVYV3Y3M-1" target="vgdq0jmsnZgpoVYV3Y3M-70">
          <mxGeometry width="100" height="100" relative="1" as="geometry">
            <mxPoint x="370" y="480" as="sourcePoint" />
            <mxPoint x="470" y="380" as="targetPoint" />
          </mxGeometry>
        </mxCell>
        <mxCell id="vgdq0jmsnZgpoVYV3Y3M-130" value="" style="edgeStyle=entityRelationEdgeStyle;fontSize=12;html=1;endArrow=ERoneToMany;exitX=0.5;exitY=1;exitDx=0;exitDy=0;entryX=0;entryY=0.5;entryDx=0;entryDy=0;" edge="1" parent="1" source="vgdq0jmsnZgpoVYV3Y3M-109" target="vgdq0jmsnZgpoVYV3Y3M-31">
          <mxGeometry width="100" height="100" relative="1" as="geometry">
            <mxPoint x="370" y="800" as="sourcePoint" />
            <mxPoint x="470" y="700" as="targetPoint" />
          </mxGeometry>
        </mxCell>
        <mxCell id="vgdq0jmsnZgpoVYV3Y3M-131" value="" style="edgeStyle=entityRelationEdgeStyle;fontSize=12;html=1;endArrow=ERoneToMany;exitX=0;exitY=0.5;exitDx=0;exitDy=0;entryX=1;entryY=0.5;entryDx=0;entryDy=0;" edge="1" parent="1" source="vgdq0jmsnZgpoVYV3Y3M-70" target="vgdq0jmsnZgpoVYV3Y3M-66">
          <mxGeometry width="100" height="100" relative="1" as="geometry">
            <mxPoint x="370" y="690" as="sourcePoint" />
            <mxPoint x="470" y="590" as="targetPoint" />
          </mxGeometry>
        </mxCell>
        <mxCell id="vgdq0jmsnZgpoVYV3Y3M-132" value="" style="edgeStyle=entityRelationEdgeStyle;fontSize=12;html=1;endArrow=ERoneToMany;exitX=0.5;exitY=1;exitDx=0;exitDy=0;entryX=1;entryY=0.5;entryDx=0;entryDy=0;" edge="1" parent="1" source="vgdq0jmsnZgpoVYV3Y3M-69" target="vgdq0jmsnZgpoVYV3Y3M-50">
          <mxGeometry width="100" height="100" relative="1" as="geometry">
            <mxPoint x="370" y="900" as="sourcePoint" />
            <mxPoint x="470" y="800" as="targetPoint" />
          </mxGeometry>
        </mxCell>
      </root>
    </mxGraphModel>
  </diagram>
</mxfile>
